<?xml version="1.0" standalone="no"?>
<!DOCTYPE svg PUBLIC "-//W3C//DTD SVG 20010904//EN"
 "http://www.w3.org/TR/2001/REC-SVG-20010904/DTD/svg10.dtd">
<svg version="1.0" xmlns="http://www.w3.org/2000/svg"
 width="90.000000pt" height="90.000000pt" viewBox="0 0 90.000000 90.000000"
 preserveAspectRatio="xMidYMid meet">
<metadata>
Created by potrace 1.16, written by Peter Selinger 2001-2019
</metadata>
<g transform="translate(0.000000,90.000000) scale(0.100000,-0.100000)"
fill="#000000" stroke="none">
<path d="M377 792 c-23 -26 -22 -94 1 -115 26 -23 94 -22 115 1 23 26 22 94
-1 115 -26 23 -94 22 -115 -1z"/>
<path d="M697 690 c-26 -16 -54 -30 -61 -30 -7 0 -43 -13 -79 -30 -56 -25 -79
-30 -146 -30 l-80 0 -61 -79 c-79 -105 -80 -131 -11 -207 43 -47 49 -60 55
-111 13 -113 23 -131 61 -117 22 9 22 225 -1 259 -15 23 -13 26 38 95 39 52
65 76 97 91 59 26 62 25 45 -16 -19 -46 -18 -170 2 -228 30 -88 152 -197 221
-197 30 0 33 3 33 29 0 25 -6 31 -34 41 -92 30 -166 139 -166 245 0 106 74
215 165 245 32 11 46 32 38 58 -8 22 -67 13 -116 -18z"/>
<path d="M190 293 c0 -12 -22 -51 -50 -87 -58 -75 -66 -116 -24 -116 20 0 42
17 85 63 32 34 58 69 59 78 0 8 -16 30 -35 49 -32 31 -35 32 -35 13z"/>
</g>
</svg>
